<svg xmlns="http://www.w3.org/2000/svg" viewBox="0 0 100 100">
  <g transform="translate(0 -952.3622)">
    <path d="M34.287 954.6209a31.569 31.569 0 0 0-22.7866 9.2412 31.569 31.569 0 0 0 0 44.6459 31.569 31.569 0 0 0 44.646 0 31.569 31.569 0 0 0 0-44.6459 31.569 31.569 0 0 0-21.8594-9.2412zm-.0696 4.7282a26.8398 26.8398 0 0 1 18.5869 7.8582 26.8398 26.8398 0 0 1 0 37.9587 26.8398 26.8398 0 0 1-37.9587 0 26.8398 26.8398 0 0 1 0-37.9587 26.8398 26.8398 0 0 1 19.3718-7.8582z"/>
    <rect width="7.1524" height="39.4613" x="-676.9976" y="748.8796" ry="3.5762" transform="rotate(-45)"/>
    <rect width="16.2778" height="37.4882" x="-681.5602" y="768.1171" ry="3.5762" transform="rotate(-45)"/>
    <rect width="4.7502" height="25.2626" x="-675.7972" y="-733.887" ry="2.3751" transform="scale(1 -1) rotate(45)"/>
    <rect width="4.7502" height="25.2626" x="718.8806" y="-686.0535" ry="2.3751" transform="scale(1 -1) rotate(-45)"/>
  </g>
</svg>